<svg width="50" height="50" viewBox="0 0 50 50" fill="none" xmlns="http://www.w3.org/2000/svg">
<path d="M25.0004 4.16667C36.505 4.16667 45.8337 13.4954 45.8337 25C45.8337 36.5046 36.505 45.8333 25.0004 45.8333C13.4944 45.8333 4.16708 36.5053 4.16708 25C4.16708 13.4947 13.4944 4.16667 25.0004 4.16667ZM25.0004 7.29167C15.2204 7.29167 7.29208 15.2205 7.29208 25C7.29208 34.7795 15.2204 42.7083 25.0004 42.7083C34.7791 42.7083 42.7087 34.7787 42.7087 25C42.7087 15.2213 34.7791 7.29167 25.0004 7.29167ZM33.1581 20.7371L33.3337 20.888C33.8896 21.4415 33.9419 22.3094 33.4894 22.9221L33.3385 23.0977L26.1072 30.3602C25.552 30.9178 24.6809 30.9685 24.0682 30.5123L23.8928 30.3602L16.6615 23.0977C16.0526 22.4862 16.0548 21.4969 16.6663 20.888C17.2222 20.3345 18.0904 20.2859 18.7011 20.7411L18.876 20.8927L24.9979 27.0417L31.124 20.8927C31.6775 20.3368 32.5455 20.2845 33.1581 20.7371Z" fill="#200E32"/>
</svg>
