<svg width="50" height="50" viewBox="0 0 50 50" fill="none" xmlns="http://www.w3.org/2000/svg">
<path d="M23.6142 4.24561C24.4628 4.24561 25.1508 4.93244 25.1508 5.77968C25.1508 6.55633 24.5727 7.19817 23.8227 7.29975L23.6142 7.31376H15.9536C10.7874 7.31376 7.44106 10.7352 7.24868 16.0484L7.23992 16.5366V33.5423C7.23992 38.9761 10.4235 42.5503 15.488 42.7558L15.9536 42.7652H34.0325C39.2116 42.7652 42.5477 39.3511 42.7395 34.0312L42.7482 33.5423V25.3033C42.7482 24.4561 43.4362 23.7693 44.2849 23.7693C45.0628 23.7693 45.7057 24.3464 45.8075 25.0952L45.8215 25.3033V33.5423C45.8215 40.6238 41.3283 45.6029 34.5118 45.8255L34.0325 45.8333H15.9536C9.0319 45.8333 4.38173 41.0149 4.17393 34.0329L4.16667 33.5423V16.5366C4.16667 9.46205 8.67137 4.47637 15.4752 4.2534L15.9536 4.24561H23.6142ZM32.38 6.04208C34.8874 3.54151 38.9512 3.54151 41.4586 6.04208L43.9526 8.53195C46.4603 11.0354 46.4603 15.0958 43.9526 17.5966L28.5679 32.9558C27.4456 34.0762 25.9237 34.706 24.3364 34.706H16.6615C15.7979 34.706 15.1039 33.9957 15.1253 33.1338L15.3179 25.4016C15.3566 23.8703 15.983 22.4119 17.0685 21.3282L32.38 6.04208ZM31.1188 11.6375L19.2416 23.4977C18.7137 24.0248 18.409 24.7341 18.3902 25.4783L18.2354 31.636L24.3364 31.6378C25.0119 31.6378 25.6631 31.4033 26.1812 30.9794L26.3948 30.7863L38.3458 18.8542L31.1188 11.6375ZM39.2866 8.21276C37.9791 6.90882 35.8595 6.90882 34.5526 8.21217L33.2917 9.46874L40.5188 16.6833L41.7801 15.4265C43.0099 14.2001 43.0822 12.2528 41.9966 10.9399L41.7795 10.7015L39.2866 8.21276Z" fill="#200E32"/>
</svg>
