<svg width="31" height="31" viewBox="0 0 31 31" fill="none" xmlns="http://www.w3.org/2000/svg">
<path d="M27.0647 13.7778H8.61108V15.5H27.0647C27.2931 15.5 27.5121 15.4093 27.6736 15.2478C27.8351 15.0863 27.9258 14.8673 27.9258 14.6389C27.9258 14.4105 27.8351 14.1915 27.6736 14.03C27.5121 13.8685 27.2931 13.7778 27.0647 13.7778Z" fill="#A6A6A6"/>
<path d="M27.0647 20.6667H8.61108V22.3889H27.0647C27.2931 22.3889 27.5121 22.2982 27.6736 22.1367C27.8351 21.9752 27.9258 21.7562 27.9258 21.5278C27.9258 21.2994 27.8351 21.0804 27.6736 20.9189C27.5121 20.7574 27.2931 20.6667 27.0647 20.6667Z" fill="#A6A6A6"/>
<path d="M13.3041 8.61111H27.0819C27.3103 8.61111 27.5293 8.52038 27.6908 8.35889C27.8523 8.1974 27.943 7.97838 27.943 7.75C27.943 7.52162 27.8523 7.30259 27.6908 7.1411C27.5293 6.97961 27.3103 6.88889 27.0819 6.88889H15.0264L13.3041 8.61111Z" fill="#A6A6A6"/>
<path d="M15.0694 2.94499C14.9821 2.85673 14.8782 2.78666 14.7637 2.73884C14.6491 2.69102 14.5262 2.6664 14.4021 2.6664C14.2779 2.6664 14.155 2.69102 14.0405 2.73884C13.9259 2.78666 13.822 2.85673 13.7347 2.94499L6.79416 9.88555L3.8836 6.7511C3.71232 6.56726 3.47502 6.45898 3.2239 6.4501C2.97278 6.44122 2.72842 6.53246 2.54458 6.70374C2.36073 6.87503 2.25246 7.11233 2.24357 7.36345C2.23469 7.61457 2.32593 7.85892 2.49721 8.04277L6.7511 12.6067L15.0694 4.30555C15.1606 4.21724 15.2331 4.11151 15.2825 3.99465C15.332 3.87779 15.3575 3.75218 15.3575 3.62527C15.3575 3.49836 15.332 3.37275 15.2825 3.25589C15.2331 3.13903 15.1606 3.0333 15.0694 2.94499Z" fill="#A6A6A6"/>
</svg>
