<svg width="20" height="20" viewBox="0 0 20 20" fill="none" xmlns="http://www.w3.org/2000/svg">
<path d="M20 6.25C20 5.5 19.5 5 18.75 5H1.25C0.5 5 0 5.5 0 6.25V13.75C0 14.5 0.5 15 1.25 15H18.75C19.5 15 20 14.5 20 13.75V6.25ZM18.75 13.75H1.25V6.25H18.75V13.75Z" fill="#A6A6A6"/>
<path d="M7.5 10C7.5 10.3315 7.3683 10.6495 7.13388 10.8839C6.89946 11.1183 6.58152 11.25 6.25 11.25C5.91848 11.25 5.60054 11.1183 5.36612 10.8839C5.1317 10.6495 5 10.3315 5 10C5 9.66848 5.1317 9.35054 5.36612 9.11612C5.60054 8.8817 5.91848 8.75 6.25 8.75C6.58152 8.75 6.89946 8.8817 7.13388 9.11612C7.3683 9.35054 7.5 9.66848 7.5 10V10Z" fill="#A6A6A6"/>
<path d="M11.25 10C11.25 10.3315 11.1183 10.6495 10.8839 10.8839C10.6495 11.1183 10.3315 11.25 10 11.25C9.66848 11.25 9.35054 11.1183 9.11612 10.8839C8.8817 10.6495 8.75 10.3315 8.75 10C8.75 9.66848 8.8817 9.35054 9.11612 9.11612C9.35054 8.8817 9.66848 8.75 10 8.75C10.3315 8.75 10.6495 8.8817 10.8839 9.11612C11.1183 9.35054 11.25 9.66848 11.25 10Z" fill="#A6A6A6"/>
<path d="M15 10C15 10.3315 14.8683 10.6495 14.6339 10.8839C14.3995 11.1183 14.0815 11.25 13.75 11.25C13.4185 11.25 13.1005 11.1183 12.8661 10.8839C12.6317 10.6495 12.5 10.3315 12.5 10C12.5 9.66848 12.6317 9.35054 12.8661 9.11612C13.1005 8.8817 13.4185 8.75 13.75 8.75C14.0815 8.75 14.3995 8.8817 14.6339 9.11612C14.8683 9.35054 15 9.66848 15 10Z" fill="#A6A6A6"/>
</svg>
