<svg width="25" height="27" viewBox="0 0 25 27" fill="none" xmlns="http://www.w3.org/2000/svg">
<path d="M12.5 0.75C8.70913 0.75 5.625 3.83413 5.625 7.625C5.625 11.4159 8.70913 14.5 12.5 14.5C16.2909 14.5 19.375 11.4159 19.375 7.625C19.375 3.83413 16.2909 0.75 12.5 0.75ZM12.5 11.75C10.2257 11.75 8.375 9.89925 8.375 7.625C8.375 5.35075 10.2257 3.5 12.5 3.5C14.7743 3.5 16.625 5.35075 16.625 7.625C16.625 9.89925 14.7743 11.75 12.5 11.75ZM24.875 26.875V25.5C24.875 20.1939 20.5561 15.875 15.25 15.875H9.75C4.4425 15.875 0.125 20.1939 0.125 25.5V26.875H2.875V25.5C2.875 21.7091 5.95913 18.625 9.75 18.625H15.25C19.0409 18.625 22.125 21.7091 22.125 25.5V26.875H24.875Z" fill="#A6A6A6"/>
</svg>
